<svg xmlns="http://www.w3.org/2000/svg" width="25" height="20" viewBox="0 0 25 20" fill="none">
  <path fill-rule="evenodd" clip-rule="evenodd" d="M0 3.75001C0 2.75544 0.395089 1.80161 1.09835 1.09835C1.80162 0.395089 2.75544 0 3.75001 0H21.25C22.2445 0 23.1984 0.395089 23.9017 1.09835C24.6049 1.80161 25 2.75544 25 3.75001V5.00001H0V3.75001ZM0 7.50001V16.25C0 17.2446 0.395089 18.1984 1.09835 18.9017C1.80162 19.605 2.75544 20 3.75001 20H21.25C22.2445 20 23.1984 19.605 23.9017 18.9017C24.6049 18.1984 25 17.2446 25 16.25V7.50001H0ZM6.25001 10C5.91849 10 5.60055 10.1317 5.36612 10.3661C5.13171 10.6006 5.00001 10.9185 5.00001 11.25C5.00001 11.5815 5.13171 11.8995 5.36612 12.1339C5.60055 12.3684 5.91849 12.5 6.25001 12.5H12.5C12.8315 12.5 13.1495 12.3684 13.3839 12.1339C13.6183 11.8995 13.75 11.5815 13.75 11.25C13.75 10.9185 13.6183 10.6006 13.3839 10.3661C13.1495 10.1317 12.8315 10 12.5 10H6.25001Z" fill="#999999"/>
</svg>