<svg xmlns="http://www.w3.org/2000/svg" width="20" height="16" viewBox="0 0 20 16" fill="none">
  <path fill-rule="evenodd" clip-rule="evenodd" d="M0 3C0 2.20435 0.316071 1.44129 0.87868 0.878679C1.44129 0.316071 2.20435 0 3 0H17C17.7956 0 18.5587 0.316071 19.1213 0.878679C19.6839 1.44129 20 2.20435 20 3V4H0V3ZM0 6V13C0 13.7957 0.316071 14.5587 0.87868 15.1214C1.44129 15.684 2.20435 16 3 16H17C17.7956 16 18.5587 15.684 19.1213 15.1214C19.6839 14.5587 20 13.7957 20 13V6H0ZM5 8C4.73478 8 4.48043 8.10536 4.29289 8.29289C4.10536 8.48043 4 8.73478 4 9C4 9.26522 4.10536 9.51957 4.29289 9.70707C4.48043 9.89467 4.73478 9.99997 5 9.99997H10C10.2652 9.99997 10.5196 9.89467 10.7071 9.70707C10.8946 9.51957 11 9.26522 11 9C11 8.73478 10.8946 8.48043 10.7071 8.29289C10.5196 8.10536 10.2652 8 10 8H5Z" fill="#262626"/>
</svg>