<svg xmlns="http://www.w3.org/2000/svg" width="16" height="17" viewBox="0 0 16 17" fill="none">
  <path d="M10.7601 12.2791L8.3515 9.87043C8.26347 9.78241 8.15945 9.7664 8.10343 9.7664C8.04742 9.7664 7.94339 9.78241 7.85537 9.87043L5.43873 12.2871C5.16666 12.5591 4.74255 12.9993 3.32617 12.9993L6.29496 15.96C6.74508 16.4096 7.35523 16.6621 7.9914 16.6621C8.62757 16.6621 9.23773 16.4096 9.68785 15.96L12.6646 12.9913C11.9364 12.9913 11.3283 12.8472 10.7601 12.2791ZM5.43873 5.03715L7.85537 7.45379C7.91938 7.51781 8.01541 7.55782 8.10343 7.55782C8.19146 7.55782 8.28748 7.51781 8.3515 7.45379L10.7441 5.06116C11.3123 4.469 11.9605 4.33297 12.6886 4.33297L9.71186 1.36418C9.26174 0.914623 8.65158 0.662109 8.01541 0.662109C7.37924 0.662109 6.76908 0.914623 6.31896 1.36418L3.35018 4.32496C4.75855 4.32496 5.19066 4.78909 5.43873 5.03715Z" fill="#D9BC85"/>
  <path d="M15.2899 6.94204L13.4894 5.13356H12.4812C12.0491 5.13356 11.617 5.3096 11.3209 5.62169L8.92024 8.02232C8.69618 8.24638 8.40011 8.35841 8.10403 8.35841C7.79914 8.35412 7.50732 8.23395 7.28781 8.02232L4.87117 5.59768C4.56709 5.2936 4.15098 5.11755 3.71087 5.11755H2.53456L0.702074 6.95804C0.252513 7.40816 0 8.01832 0 8.65449C0 9.29066 0.252513 9.90082 0.702074 10.3509L2.53456 12.1914H3.71887C4.15098 12.1914 4.56709 12.0154 4.87918 11.7113L7.29581 9.29466C7.51987 9.0706 7.81595 8.95857 8.11203 8.95857C8.40811 8.95857 8.70419 9.0706 8.92824 9.29466L11.3369 11.7033C11.641 12.0074 12.0571 12.1834 12.4972 12.1834H13.5055L15.3059 10.3749C15.7574 9.91672 16.0091 9.29843 16.0061 8.65519C16.0031 8.01194 15.7456 7.39603 15.2899 6.94204Z" fill="#D9BC85"/>
</svg>