<svg xmlns="http://www.w3.org/2000/svg" width="17" height="16" viewBox="0 0 17 16" fill="none">
  <path fill-rule="evenodd" clip-rule="evenodd" d="M16.5039 16V9.63928C16.5039 9.04597 16.4005 8.54829 16.2025 8.01822C16.1907 7.98641 16.2203 7.94124 16.2429 7.8728C16.3582 7.52378 16.3932 7.39265 16.4546 7.02531C16.4677 6.94659 16.4721 6.87441 16.4836 6.79254C16.4948 6.7116 16.4919 6.61939 16.5023 6.54343C16.503 6.53888 16.5035 6.52287 16.504 6.49798V4.70323V4.69466V4.69104V4.43626L16.5031 4.42763C16.4941 4.34873 16.4948 4.26048 16.4844 4.17861C16.4498 3.90803 16.4356 3.77855 16.3659 3.49986C16.3144 3.29358 16.248 3.09664 16.1707 2.90358C16.1449 2.83877 16.1178 2.78101 16.0909 2.71568L16.0053 2.5395C15.988 2.51105 15.9762 2.48443 15.9606 2.45328C15.9513 2.4347 15.9463 2.42864 15.9369 2.41165L15.864 2.28223C15.7368 2.07194 15.6404 1.93164 15.484 1.73398L15.4254 1.66191C15.4052 1.63799 15.3833 1.61673 15.3641 1.5921C15.2778 1.48079 15.0942 1.30704 14.9725 1.19361C14.9899 1.35899 14.9382 1.49533 14.8174 1.60268C14.4774 1.8807 14.0289 2.28701 13.472 2.82151C12.9151 3.35594 12.3351 3.95478 11.7322 4.61791C11.1293 5.28103 10.5457 5.97103 9.98124 6.68764C9.41685 7.40437 8.97786 8.05953 8.66415 8.65317C8.61541 9.70133 8.68127 10.4222 8.86161 10.8157C9.04195 11.2093 9.29368 11.3698 9.61681 11.2974C9.93987 11.2251 10.3104 10.9729 10.7283 10.5408C11.0486 10.2096 11.3749 9.83122 11.7075 9.40567L11.6866 9.51883C11.6487 9.72651 11.605 9.97271 11.5685 10.1887C11.532 10.4048 11.5027 10.5907 11.4728 10.7972C11.4427 11.0036 11.412 11.2306 11.3866 11.4305C11.3613 11.6304 11.3416 11.8031 11.3242 11.9674C11.3138 12.0648 11.3043 12.1593 11.295 12.2586C11.2007 12.3517 11.0438 12.5054 10.8708 12.6639C10.6873 12.832 10.4858 13.0055 10.2547 13.1797C10.0235 13.3539 9.76285 13.5288 9.49404 13.6653C9.30099 13.7634 9.10392 13.8416 8.97286 13.9268C8.76274 13.9914 8.55949 14.0237 8.36315 14.0237C7.90854 14.0162 7.49386 13.875 7.11909 13.5998C6.74431 13.3246 6.46294 12.7409 6.27504 11.8487C5.85053 12.4743 5.46556 13.1647 5.11997 13.9197C4.79598 14.6279 4.55031 15.3196 4.38322 15.9947C4.45363 15.9982 4.52378 16 4.59312 16L6.63374 15.994C6.66055 15.9926 6.66648 15.9886 6.69928 15.988C6.73615 15.9876 6.78399 15.9801 6.81882 15.9767C7.31175 15.9289 7.73137 15.8058 8.184 15.6167C8.21799 15.6024 8.2382 15.5803 8.2795 15.5974L8.37441 15.6395C8.86122 15.8435 9.44473 15.9999 10.132 15.9999C12.256 15.9999 14.38 15.9999 16.504 15.9999L16.5039 16ZM12.2578 0.014153C12.1501 0.00539749 12.0406 0.000247213 11.9196 0H11.911L9.87024 0.00599492L9.68528 0.0232587C9.42274 0.0486804 9.15915 0.102429 8.90638 0.172576C8.68526 0.233905 8.52864 0.296079 8.31992 0.383346C8.22732 0.422137 8.2648 0.417008 8.12957 0.360499C7.64244 0.156321 7.05953 2.06011e-05 6.3719 2.06011e-05H2.06011e-05V6.36072C2.06011e-05 6.95403 0.103685 7.45163 0.301477 7.98178C0.313261 8.01359 0.283698 8.0587 0.261099 8.12714C0.13984 8.49446 0.0872251 8.68628 0.0339918 9.09008C0.029439 9.12386 0.0260192 9.16715 0.0204157 9.20744C0.00914689 9.28838 0.0120517 9.3806 0.00170989 9.45641C0.000988853 9.46108 0.000515028 9.47697 0 9.50191V11.2967V11.3053V11.3089V11.5637L0.00092705 11.5722C0.00974433 11.6513 0.0091675 11.7395 0.0195711 11.8214C0.0294596 11.8991 0.0376176 11.9791 0.0493397 12.0593C0.0714035 12.2093 0.102697 12.3584 0.138069 12.5001C0.189633 12.7064 0.255969 12.9032 0.333223 13.0964L0.456253 13.3719C0.47259 13.4045 0.480027 13.43 0.498671 13.4604C0.515996 13.4889 0.52778 13.5155 0.543334 13.5467L0.592467 13.6343C0.610184 13.6642 0.622174 13.6881 0.639953 13.7179C0.768792 13.9307 0.917306 14.1484 1.07874 14.338C1.09888 14.3619 1.12082 14.3833 1.13986 14.4079C1.15329 14.4252 1.1558 14.4276 1.17074 14.4424C1.18549 14.4572 1.18747 14.4635 1.20045 14.4782C1.21118 14.4905 1.22125 14.499 1.23312 14.5108C1.24913 14.5267 1.25203 14.5338 1.26586 14.5496C1.29497 14.5827 1.49552 14.7793 1.53847 14.8125L1.67864 14.9342C1.71381 14.962 1.75029 14.991 1.78785 15.0204C1.93117 14.5506 2.11817 14.0622 2.34875 13.5551C2.66517 12.8592 3.01069 12.172 3.38546 11.4939C3.76018 10.8158 4.13672 10.1601 4.5151 9.52705C4.89357 8.89396 5.23118 8.31539 5.52798 7.79132C5.60109 6.219 5.67703 4.95288 5.75581 3.99297C5.83465 3.03306 5.96235 2.38687 6.13889 2.05436C6.25909 1.86277 6.48171 1.74203 6.80663 1.69224C7.13161 1.64244 7.46133 1.64895 7.79573 1.71187C8.13006 1.77477 8.41696 1.88134 8.65651 2.03164C8.89606 2.18188 9.00164 2.36031 8.97352 2.56692C8.93598 2.6609 8.90166 2.79421 8.8707 2.96706C8.83973 3.13988 8.80312 3.31324 8.76089 3.48692C8.7186 3.66074 8.6914 3.81053 8.67923 3.93638C8.66705 4.06225 8.66091 4.12515 8.66091 4.12515C8.84501 3.88284 9.11123 3.53717 9.45966 3.08811C9.80803 2.63917 10.1898 2.18174 10.6049 1.71589C11.0201 1.24995 11.4267 0.818812 11.8249 0.422426C11.9797 0.268309 12.124 0.132156 12.2579 0.0141324L12.2578 0.014153Z" fill="#D9BC85"/>
</svg>