<svg xmlns="http://www.w3.org/2000/svg" width="18" height="10" viewBox="0 0 18 10" fill="none">
  <path d="M9.42082 7.7423C9.04214 7.63368 8.74389 7.48397 8.52667 7.29375C8.30944 7.10295 8.18967 6.79472 8.16619 6.36966C8.02636 6.67636 7.88349 6.98167 7.73761 7.28553C7.60257 7.56734 7.39298 7.91138 7.10882 8.31883C7.00902 8.4703 6.8505 8.5748 6.63445 8.63234C6.41884 8.68963 6.19433 8.70557 5.97279 8.67931C5.75633 8.65599 5.54683 8.58908 5.35692 8.48263C5.17081 8.37695 5.0575 8.23722 5.01817 8.06285C4.97531 7.86676 4.95652 7.6102 4.96181 7.29317C4.97938 6.56581 5.05199 5.84082 5.17903 5.12443C5.24714 4.74046 5.31935 4.38175 5.39509 4.04769C5.47082 3.71363 5.54656 3.43065 5.62171 3.19816C5.69744 2.96567 5.76848 2.81067 5.83482 2.732C5.8994 2.64276 6.00978 2.59345 6.16653 2.58523C6.32329 2.57701 6.47593 2.59462 6.62447 2.63807C6.77242 2.6821 6.89453 2.74433 6.99258 2.82476C7.09004 2.90461 7.1235 2.9868 7.0918 3.07134C7.02839 3.23925 6.94972 3.52047 6.8552 3.91383C6.75525 4.33259 6.6652 4.75366 6.58513 5.17668C6.5029 5.60424 6.43106 6.03373 6.36967 6.46477C6.31096 6.87515 6.29158 7.17457 6.31096 7.36303C6.36438 7.34366 6.44188 7.2462 6.54345 7.07183C6.64502 6.89746 6.76068 6.66673 6.88925 6.38082C7.01841 6.0949 7.15403 5.76495 7.2967 5.39214C7.43995 5.01875 7.58848 4.62539 7.74172 4.2109C7.89436 3.797 8.04114 3.37487 8.18087 2.94629C8.3206 2.51771 8.44741 2.09618 8.56131 1.68227C8.60416 1.52845 8.71102 1.43804 8.88127 1.41044C9.05153 1.38285 9.2259 1.39459 9.40379 1.44508C9.58109 1.49499 9.73257 1.57542 9.85703 1.68521C9.98208 1.79441 10.0308 1.90243 10.0026 2.00811C9.6903 3.16763 9.48422 4.51561 9.45076 5.71563C9.43491 6.29745 9.47366 6.88513 9.74783 7.41059L9.75546 7.42468C9.8083 7.51744 9.86349 7.57615 9.94157 7.64719C9.77484 7.75697 9.61573 7.79103 9.42082 7.7423ZM12.125 6.34853C12.3481 5.954 12.4731 5.46788 12.5448 5.05691L12.5477 5.04223C12.6 4.73753 12.6387 4.43048 12.6857 4.12519L12.742 3.77821C12.7596 3.67723 12.8348 3.61969 12.9534 3.60208C13.0726 3.58506 13.1982 3.59445 13.3309 3.63026C13.4636 3.66549 13.5822 3.72302 13.6878 3.80228C13.7935 3.88095 13.8423 3.9608 13.8358 4.04006C13.8054 4.33549 13.7514 4.62801 13.6743 4.91483C13.5902 5.2397 13.495 5.56161 13.389 5.88002C13.2387 6.33507 13.0563 6.77886 12.843 7.20804C12.7689 7.35815 12.6558 7.48552 12.5154 7.57674C12.4999 7.56396 12.4846 7.55085 12.4696 7.5374C12.4315 7.50353 12.398 7.46484 12.3698 7.42233C12.3344 7.3702 12.3037 7.31498 12.2782 7.25735C12.2453 7.18253 12.2184 7.10517 12.1978 7.02604C12.1784 6.94875 12.1639 6.87031 12.1543 6.7912C12.1351 6.64442 12.1253 6.49656 12.125 6.34853Z" fill="#262626"/>
  <path d="M10.6853 1.65408C10.7892 1.48852 10.8761 1.45447 11.0675 1.49498C11.1908 1.52257 11.2982 1.57482 11.4256 1.60066C11.5431 1.62473 11.9394 1.70222 12.0022 1.79381L12.0051 1.80027C12.0157 1.85311 11.9405 1.94293 11.9106 1.98873C11.3464 2.86233 11.1016 4.10111 10.9982 5.12501C10.9513 5.60232 10.9319 6.1583 11.0781 6.61917C11.1427 6.81996 11.2677 6.93914 11.4885 6.93268C11.6305 6.92857 11.7198 6.85049 11.8172 6.75655L11.829 6.7454C11.8466 6.72955 11.8619 6.71252 11.8777 6.69491L11.8795 6.72602C11.883 6.78004 11.8859 6.81585 11.8906 6.85284C11.8953 6.891 11.9006 6.92975 11.9123 6.98552C11.9655 7.24001 12.0572 7.48491 12.1842 7.71176L12.1942 7.72703C11.5812 7.92899 10.8702 7.85619 10.3342 7.48632C9.82521 7.13406 9.76827 6.58218 9.75183 6.01153C9.72599 4.94125 9.97727 3.56215 10.3025 2.54178C10.4006 2.2359 10.5186 1.92884 10.6853 1.65408ZM13.0255 3.07251C13.0255 3.15764 13.0625 3.23279 13.1353 3.29796C13.2087 3.36313 13.2932 3.41362 13.3895 3.44825C13.4852 3.48348 13.5797 3.49816 13.6736 3.49405C13.767 3.48994 13.8304 3.45765 13.8644 3.39835C13.9226 3.29267 13.9754 3.17643 14.0236 3.04785C14.1374 2.74646 14.2239 2.43541 14.2819 2.11848C14.2877 2.02689 14.2367 1.93824 14.1304 1.8537C14.023 1.76812 13.8994 1.7052 13.767 1.66876C13.6432 1.63153 13.513 1.62073 13.3848 1.63706C13.2656 1.65467 13.201 1.71162 13.191 1.81084C13.1768 1.89411 13.1645 1.9777 13.1541 2.06153L13.1083 2.40968C13.0924 2.52854 13.0776 2.64753 13.0636 2.76663C13.052 2.86853 13.0392 2.97029 13.0255 3.07192" fill="#262626"/>
  <path d="M14.6053 1.86372C14.6106 1.85903 14.6188 1.8602 14.6288 1.86196L15.1671 1.94005L15.3967 1.97292L15.3985 1.96588L15.4002 1.95883L15.4014 1.9512L15.4032 1.94357L15.4049 1.93652L15.4067 1.92889L15.4084 1.92185L15.4096 1.91421L15.4114 1.90717L15.4131 1.90012L15.4143 1.89249L15.4161 1.88545L15.4178 1.8784L15.4196 1.87077L15.4208 1.86372L15.4225 1.85668L15.4243 1.84963L15.4261 1.842L15.4272 1.83496L15.429 1.82791L15.4308 1.82087L15.4325 1.81382L15.4337 1.80678L15.4355 1.79973L15.4372 1.79269L15.4384 1.78564L15.4402 1.77859L15.4419 1.77214L15.4437 1.76509L15.4454 1.75805L15.4466 1.75159L15.4484 1.74454L15.4495 1.7375L15.4513 1.73104L15.4531 1.72399L15.4548 1.71754L15.456 1.71108L15.4578 1.70403L15.4595 1.69758L15.4607 1.69053L15.4625 1.68466L15.4642 1.67761L15.466 1.67116L15.4672 1.66529V1.6647L15.4689 1.65883L15.4707 1.65178L15.4719 1.64591L15.4736 1.63945L15.4754 1.63299L15.4766 1.62654L15.4783 1.62066L15.4801 1.61421L15.4818 1.60834L15.483 1.60246L15.4848 1.59601L15.4865 1.59014L15.4877 1.58427L15.4895 1.57781L15.4906 1.57194L15.4924 1.56606L15.4942 1.56019L15.4953 1.55432L15.4971 1.54845L15.4989 1.54258C15.54 1.38994 15.5811 1.28426 15.6298 1.23553C15.6791 1.1868 15.7372 1.19443 15.8206 1.21615C15.904 1.23788 16.0126 1.27369 16.0466 1.33181C16.0807 1.39052 16.0408 1.47037 15.9879 1.61127L15.9862 1.61714L15.9838 1.62184L15.982 1.62771L15.9803 1.63358L15.9779 1.63887L15.9762 1.64474L15.9738 1.65002L15.9721 1.65589L15.9697 1.66176L15.968 1.66763L15.9656 1.6735L15.9633 1.67937L15.9615 1.68525L15.9591 1.69112L15.9568 1.69699L15.955 1.70345L15.9527 1.70932L15.9503 1.71578L15.9486 1.72223L15.9462 1.7281L15.9439 1.73515L15.9415 1.74102L15.9398 1.74748L15.9374 1.75394L15.9351 1.76098L15.9327 1.76685L15.9304 1.7739L15.9286 1.78036L15.9263 1.7874L15.9239 1.79386L15.9216 1.8009L15.9192 1.80736L15.9169 1.81441L15.9145 1.82087L15.9128 1.82791L15.9098 1.83496L15.9081 1.842L15.9057 1.84905L15.9034 1.85609L15.901 1.86314L15.8987 1.87018L15.8963 1.87723L15.8934 1.88427L15.891 1.89132L15.8893 1.89895L15.8863 1.90599L15.8846 1.91304L15.8816 1.92009L15.8793 1.92713L15.877 1.93476L15.8746 1.9424L15.8723 1.94944L15.8699 1.95707L15.8676 1.96412L15.8652 1.97175L15.8629 1.9788L15.8605 1.98643L15.8576 1.99406L15.8552 2.0011L15.8529 2.00874L15.8505 2.01637L15.8482 2.024L15.8458 2.03105L15.8435 2.03868L16.1194 2.07978C16.1535 1.92537 16.1875 1.77683 16.2198 1.65765C16.2621 1.50442 16.302 1.39933 16.3507 1.35001C16.4001 1.30128 16.4582 1.30892 16.5415 1.33064C16.6249 1.35236 16.7335 1.38817 16.7676 1.4463C16.8016 1.50501 16.7617 1.58544 16.7089 1.72576C16.6672 1.83848 16.6173 1.98995 16.5662 2.14847C16.8187 2.18839 17.0535 2.22655 17.2343 2.26002C17.7686 2.35806 17.8214 2.40679 17.7921 2.50836C17.7621 2.6111 17.6494 2.76668 17.4457 2.96629C17.2425 3.16591 16.9484 3.40838 16.5474 3.88745C16.0995 4.43124 15.6917 5.00694 15.3274 5.61C15.0169 6.13839 14.9035 6.48125 14.856 6.64916C14.8078 6.81766 14.8255 6.8112 15.0949 6.82353C15.3644 6.83527 15.8846 6.86697 16.1517 6.90983C16.4188 6.95269 16.4318 7.00729 16.4376 7.15641C16.4435 7.30554 16.4417 7.54918 16.4212 7.6848C16.4006 7.82042 16.3607 7.8486 16.1177 7.84684C15.8749 7.84106 15.6323 7.82814 15.3902 7.80809C15.3979 7.976 15.4061 8.13569 15.4167 8.25605C15.4302 8.40576 15.4472 8.49441 15.3991 8.54138C15.3509 8.58835 15.237 8.59422 15.1507 8.59304C15.0644 8.59187 15.0063 8.58424 14.9716 8.52376C14.937 8.46388 14.9264 8.35175 14.9264 8.19264C14.9264 8.07287 14.9329 7.9261 14.9411 7.77228H14.9335L14.6652 7.7488C14.6728 7.90849 14.6804 8.06054 14.691 8.1762C14.7045 8.32591 14.7215 8.41398 14.6734 8.46153C14.6253 8.5085 14.5108 8.51437 14.4251 8.5132C14.3388 8.51202 14.2806 8.50439 14.246 8.44392C14.2114 8.38404 14.2008 8.2719 14.2008 8.1128C14.2008 7.99655 14.2067 7.85565 14.2143 7.7077C13.9771 7.6848 13.7681 7.66425 13.6295 7.64899C13.3589 7.62022 13.3577 7.61494 13.3653 7.5028C13.3736 7.39125 13.3906 7.17285 13.4552 6.88283C13.5198 6.59339 13.6331 6.23115 13.8685 5.73857C14.1033 5.246 14.4615 4.62309 14.8284 4.14343C15.1959 3.66435 15.5728 3.33029 15.7613 3.16297C15.9498 2.99565 15.9498 2.99565 15.7008 2.97745C15.4519 2.95925 14.9546 2.92285 14.7057 2.89408C14.4573 2.86473 14.4573 2.843 14.4808 2.67685C14.5043 2.51071 14.5513 2.20013 14.5748 2.03927C14.5994 1.87899 14.6006 1.86901 14.6053 1.86372ZM3.66883 7.10064C3.57155 7.13123 3.47022 7.14706 3.36824 7.14761C3.14455 7.14467 2.93966 7.07481 2.75531 6.93919C2.57037 6.80357 2.4324 6.51648 2.33906 6.07615C2.12109 6.4 1.9306 6.74151 1.76957 7.09712C1.60751 7.44641 1.48085 7.81106 1.39148 8.1856C1.30929 8.53903 1.27934 8.85489 1.30224 9.13259C1.32572 9.41028 1.42553 9.60285 1.60225 9.71146C1.38272 9.75214 1.15647 9.73638 0.944698 9.66567C0.732569 9.59844 0.540767 9.47892 0.386954 9.31811C0.233135 9.15724 0.120999 8.95704 0.0511344 8.71692C-0.0193174 8.47621 -0.016969 8.20262 0.0581795 7.89381C0.133328 7.58558 0.248399 7.25974 0.404567 6.91746C0.560736 6.57401 0.730994 6.23584 0.915343 5.90178C1.10028 5.56714 1.28521 5.24423 1.47191 4.93249C1.65861 4.62015 1.82476 4.33541 1.97095 4.07708C2.00206 3.40603 2.01615 2.69975 2.10246 2.03516C2.16116 1.58192 2.27271 1.12398 2.40188 0.686005C2.42419 0.612617 2.45765 0.498134 2.49229 0.427682C2.55159 0.333746 2.66137 0.273861 2.82106 0.249203C2.98193 0.224545 3.14397 0.227481 3.30894 0.259184C3.45904 0.284583 3.60303 0.337957 3.73341 0.416527C3.82383 0.475237 3.90837 0.559192 3.88958 0.677786C3.87608 0.743541 3.84614 0.830431 3.82735 0.898535C3.72285 1.27428 3.61952 1.66763 3.54319 2.05042C3.53604 2.08798 3.53016 2.12577 3.52558 2.16373L3.52382 2.17723L3.51501 2.27058C3.60543 2.15082 3.73694 1.98056 3.90837 1.75981C4.27033 1.29902 4.65948 0.860265 5.07376 0.445882C5.27044 0.250379 5.43189 0.114171 5.55988 0.036087C5.66732 -0.0173388 5.79648 -0.0114689 5.94736 0.0536995C6.09824 0.120041 6.2321 0.215152 6.34894 0.339617C6.45589 0.449578 6.54061 0.579154 6.59845 0.721231C6.64836 0.851566 6.63192 0.953135 6.54855 1.0277C6.32022 1.21959 6.09912 1.41993 5.88572 1.6283C5.26984 2.22366 4.69512 2.86017 4.16552 3.53343C3.88723 3.88628 3.67118 4.20918 3.51677 4.50214C3.4927 5.0182 3.52499 5.3734 3.61365 5.56714C3.70288 5.76088 3.82676 5.84014 3.98587 5.80491C4.14556 5.7691 4.32814 5.64464 4.53363 5.43211C4.69214 5.26889 4.85242 5.0822 5.01622 4.8726L5.00624 4.92838C4.98746 5.03053 4.96573 5.15147 4.94753 5.25833C4.91285 5.46149 4.88309 5.66547 4.85829 5.87008C4.84126 6.00587 4.82619 6.14189 4.81309 6.27811C4.76612 6.32391 4.68921 6.40023 4.60408 6.47773C4.50706 6.56731 4.40576 6.65214 4.30055 6.73194C4.18262 6.82242 4.0571 6.90257 3.92539 6.97148C3.83028 7.02021 3.73341 7.05837 3.66883 7.10064Z" fill="#262626"/>
</svg>